<svg xmlns="http://www.w3.org/2000/svg" viewBox="0 0 128 128">
  <defs>
    <linearGradient id="a" x1="76.1" x2="523.5" y1="10.8" y2="365.9" gradientTransform="translate(1.1 14.6) scale(.24566)" gradientUnits="userSpaceOnUse">
      <stop offset="0" stop-color="#9013fe" />
      <stop offset="1" stop-color="#6610f2" />
    </linearGradient>
    <linearGradient id="b" x1="193.5" x2="293.5" y1="109.7" y2="278.9" gradientTransform="translate(0 52)" gradientUnits="userSpaceOnUse">
      <stop offset="0" stop-color="#fff" />
      <stop offset="1" stop-color="#f1e5fc" />
    </linearGradient>
    <filter id="c" width="197" height="249" x="161.9" y="135.5" color-interpolation-filters="sRGB" filterUnits="userSpaceOnUse">
      <feFlood flood-opacity="0" result="BackgroundImageFix" />
      <feColorMatrix in="SourceAlpha" values="0 0 0 0 0 0 0 0 0 0 0 0 0 0 0 0 0 0 127 0" />
      <feOffset dy="4" />
      <feGaussianBlur stdDeviation="8" />
      <feColorMatrix values="0 0 0 0 0 0 0 0 0 0 0 0 0 0 0 0 0 0 0.15 0" />
      <feBlend in2="BackgroundImageFix" result="effect1_dropShadow" />
      <feBlend in="SourceGraphic" in2="effect1_dropShadow" result="shape" />
    </filter>
  </defs>
  <path fill="url(#a)" d="M15 27.7c-.3-6.8 5-13 12.2-13h73.6c7.2 0 12.5 6.2 12.2 13-.2 6.6 0 15 2.2 22 2.2 6.9 5.8 11.3 11.7 11.8V68c-6 .6-9.5 5-11.7 11.9-2.1 7-2.4 15.4-2.2 22 .3 6.8-5 13-12.2 13H27.2c-7.1 0-12.5-6.2-12.2-13 .2-6.6 0-15-2.2-22S7 68.5 1 67.9v-6.4c6-.5 9.5-5 11.7-11.8 2.1-7 2.4-15.4 2.2-22z" />
  <path fill="url(#b)" stroke="#fff" d="M267.1 364.5c47.3 0 75.8-23.2 75.8-61.4 0-28.9-20.3-49.8-50.5-53v-1.3a48.5 48.5 0 0 0 39.6-47.2c0-32.8-26-54.1-65.4-54.1H178v217zM212.4 175h36c24.9 0 39 11.1 39 31.3 0 21.5-16.4 33.5-46.3 33.5h-38.7zm0 162v-71.5H258c32.7 0 49.6 12 49.6 35.5s-16.5 36-47.6 36z" filter="url(#c)" transform="translate(1.5 2.2) scale(.24566)" />
</svg>