<svg xmlns="http://www.w3.org/2000/svg" fill="none" viewBox="0 0 128 128">
  <path fill="#000" d="M125.6 40 67 1a5.6 5.6 0 0 0-6.2 0L2.4 40A5.6 5.6 0 0 0 0 44.4v39c0 1.8 1 3.6 2.4 4.6L61 127c2 1.2 4.2 1.2 6.2 0l58.5-39c1.5-1 2.4-2.8 2.4-4.6v-39c0-1.8-1-3.6-2.4-4.6zM69.5 15.7l43 28.7-19.1 12.9-23.9-16V15.8zm-11 0v25.6l-23.9 16-19.2-12.9 43.1-28.7zM11 54.8 24.8 64 11 73.2V54.8zm47.5 57.4-43-28.7 19.1-12.9 23.9 16v25.6zM64 77 44.6 64 64 51l19.4 13L64 77zm5.5 35.2V86.6l23.9-16 19.2 12.9-43.1 28.7zm47.5-39L103.2 64l13.8-9.2v18.4z" />
</svg>