<svg xmlns="http://www.w3.org/2000/svg" viewBox="0 0 448 512">
  <path d="M120.1 208.3a19.6 19.6 0 0 0-11.7-4.4H91v104.5h17.5c3.9 0 7.8-1.5 11.7-4.4 3.9-2.9 5.8-7.3 5.8-13.1v-69.7c0-5.8-2-10.2-5.8-13.1zM404.1 32h33.9A44 44 0 0 0 0 75.8v360.4A44 44 0 0 0 43.9 480h360.2a44 44 0 0 0 43.9-43.8V75.8A44 44 0 0 0 404.1 32zM154.2 291.2c0 18.8-11.6 47.3-48.4 47.3H59.4V173h37.4c35.4 0 47.4 28.5 47.4 47.3v70.9zm100.7-88.7h-53.3v38.4h32.6v29.6h-32.6v38.4h53.3v29.6h-62.2a20.1 20.1 0 0 1-20.7-19.7V193.7a20.2 20.2 0 0 1 19.7-20.7h63.2v29.5zm103.6 115.3c-13.2 30.8-36.9 24.6-47.4 0L272.6 173h32.6l29.7 113.7L364.5 173h32.6l-38.5 144.8z" />
</svg>