<svg xmlns="http://www.w3.org/2000/svg" viewBox="0 0 128 128">
  <path fill="#000" fill-rule="evenodd" d="m21.6 38.5-.1 19.3v19.1h8.9c10.4 0 11.3-.1 14.4-1.6l.6-.3v-.9c.5-4 3.8-7.3 7.7-7.4 1 0 .9 0 1.5-1.6 1.3-3.3 1.6-9 .7-13.2-1.7-7.4-7-12.1-14.8-13.3-1.2-.1-18.7-.3-18.9-.1m40.1 18.4v18.6l-.3 1.2a8 8 0 0 1-14 3.1l-.7-.7-.7.3c-1.6.8-5.1 1.8-6 1.8-1.2 0 1.3 4 3.8 6A14 14 0 0 0 54 90.6c8 0 13.4-4 15.6-11.6.7-2.5.7-2.5.6-22.4V38.5l-8.5-.1v18.5M93 38.5c-9.2.5-15.5 6.2-15.5 14.1 0 6.3 3 10.2 10.2 13.4l3.2 1.4c2 1 2.4 1 3.4 1.5 6.5 2.8 8 4.2 8 7.5 0 7.9-12.5 9-21.1 1.7l-1-.7-4 4.6-.6.8c-.5.5-.4.6.8 1.6 8.8 7.5 22.2 8.4 30 2a14.3 14.3 0 0 0 2.8-18.1 16.6 16.6 0 0 0-7.6-6l-.7-.3a41.8 41.8 0 0 1-1.6-.6L96 60l-1.7-.7a46.7 46.7 0 0 0-1.4-.6c-4.3-1.6-6.4-3.7-6.6-6.3-.4-6.3 8.7-8.4 16.4-3.9a24.3 24.3 0 0 1 2.5 1.8l4.2-5 .3-.6-.6-.5a25.7 25.7 0 0 0-6-3.9A23 23 0 0 0 93 38.5m-54.7 8.2c5 .7 7.7 4.3 7.9 10.3.2 6.2-2.6 10.4-7.4 11.5-1.3.3-7.1.5-7.9.3h-.3V46.6c.2-.2 6.7-.1 7.7 0M52 70c-5.2 2.1-4 9.7 1.7 9.7 5.4 0 7-7.2 2-9.5-.9-.5-2.8-.6-3.7-.2" />
</svg>