<svg xmlns="http://www.w3.org/2000/svg" width="128" height="128" xml:space="preserve">
  <path fill="#000000" d="M64.009 128c-12.595 0-24.738-3.75-35.198-10.857l-21.003 9.935 7.266-22.551C5.814 93.113.729 78.768.729 64.003.729 28.711 29.116 0 64.009 0v4C31.321 4 4.729 30.917 4.729 64.003c0 14.197 5.013 27.979 14.115 38.808l.712.848-5.108 15.853 14.753-6.978.953.674C40.149 120.268 51.856 124 64.009 124c32.678 0 59.263-26.915 59.263-59.997h4C127.271 99.291 98.892 128 64.009 128z" />
  <path fill="#000000" d="M127.271 64.003h-4c0-.632-.01-1.26-.027-1.887l3.998-.116c.02.666.029 1.333.029 2.003zM122.997 58.212a60.64 60.64 0 0 0-.51-3.987l3.949-.639c.227 1.4.409 2.83.543 4.25l-3.982.376zm-1.283-7.931a59.58 59.58 0 0 0-1.033-3.882l3.828-1.159a65.041 65.041 0 0 1 1.104 4.143l-3.899.898zm-2.327-7.691a60.655 60.655 0 0 0-1.546-3.715l3.641-1.657a64.948 64.948 0 0 1 1.647 3.959l-3.742 1.413zm-3.335-7.315a60.733 60.733 0 0 0-2.026-3.473l3.385-2.131a64.24 64.24 0 0 1 2.161 3.704l-3.52 1.9zm-4.281-6.802a60.573 60.573 0 0 0-2.472-3.172l3.072-2.562a64.184 64.184 0 0 1 2.634 3.381l-3.234 2.353zm-5.148-6.169a59.369 59.369 0 0 0-2.869-2.811l2.699-2.951a63.24 63.24 0 0 1 3.064 3l-2.894 2.762zm-5.922-5.425a59.93 59.93 0 0 0-3.221-2.401l2.281-3.285a64.19 64.19 0 0 1 3.436 2.561l-2.496 3.125zm-6.596-4.578a58.255 58.255 0 0 0-3.513-1.941l1.814-3.565a62.8 62.8 0 0 1 3.751 2.074l-2.052 3.432zm-7.148-3.637a58.588 58.588 0 0 0-3.742-1.443l1.311-3.779a62.2 62.2 0 0 1 3.998 1.542l-1.567 3.68zM79.38 6.038a59.23 59.23 0 0 0-3.908-.916l.779-3.924a63.39 63.39 0 0 1 4.176.979L79.38 6.038zm-7.87-1.562a59.866 59.866 0 0 0-3.677-.354l.258-3.991c1.31.084 2.631.211 3.927.377l-.508 3.968zM65.894 4.029A59.063 59.063 0 0 0 64.009 4V0c.671 0 1.341.01 2.008.031l-.123 3.998z" />
  <g>
    <path fill="#000000" d="M62.999 97.421c-18.521 0-33.59-15.235-33.59-33.962 0-18.725 15.068-33.959 33.59-33.959 10.106 0 19.58 4.539 25.992 12.452l-3.107 2.519c-5.649-6.972-13.99-10.97-22.885-10.97-16.316 0-29.59 13.439-29.59 29.959 0 16.521 13.273 29.962 29.59 29.962 6.49 0 12.652-2.091 17.822-6.046l2.43 3.178c-5.873 4.492-12.876 6.867-20.252 6.867z" />
    <path fill="#000000" d="M57.293 79.64c-.001 0 0 0 0 0-1.273 0-2.625-.206-4.02-.612-4.127-1.199-7.145-4.559-8.278-9.218-1.558-6.398.775-13.514 6.09-18.57 4.626-4.396 10.991-5.318 15.517-5.318 3.835 0 6.683.647 6.803.675l2.081.48-.616 2.045c-.232.773-5.711 18.963-6.686 21.785-.902 2.622-3.771 8.733-10.891 8.733zm9.309-29.719c-3.797 0-9.092.732-12.761 4.217-5.114 4.866-5.916 10.797-4.959 14.726.786 3.229 2.794 5.533 5.509 6.322 1.032.301 2.008.453 2.901.453 4.381 0 6.335-3.782 7.109-6.037.754-2.181 4.454-14.4 5.979-19.451a31.75 31.75 0 0 0-3.778-.23z" />
    <path fill="#000000" d="M76.264 79.34c-2.741 0-5.24-.957-7.278-2.832-4.414-4.059-.247-20.375 1.136-25.279l3.85 1.085c-2.782 9.878-3.847 19.808-2.278 21.251 2.507 2.304 5.543 1.94 7.649 1.23 4.672-1.575 10.074-6.943 11.363-14.157.94-5.27.026-13.193-9.673-21.017l2.512-3.113c11.813 9.529 12.024 19.649 11.099 24.833-1.401 7.842-7.167 14.933-14.022 17.245-1.497.504-2.96.754-4.358.754z" />
  </g>
</svg>