<svg xmlns="http://www.w3.org/2000/svg" xmlns:xlink="http://www.w3.org/1999/xlink" viewBox="0 0 409 318">
  <defs>
    <path id="a" d="M186.4 296.8c4.2 9.3 3.2 18 3.2 18s-4.4 1.4-12.5 1.5c-3 .7-15.2 2.9-34.8-1.2-23-4.9-33.5-29.1-33.5-29.1l.7-.6c-1.3-.3-2-.3-2.2-.2-14.8 2.8-22.5 2.5-33.8 2.5-11.2 0-55.8-16.8-70.1-34.8 0 0 22.2-5.4 22.2-10S.2 230 .2 230s-3.9-21 23.4-42.1A167.2 167.2 0 0 1 71.1 160c-14.2-2-54.3-17.8-67.7-34.7 0 0 22.2-5.4 22.2-10s-25.4-13-25.4-13-3.9-21 23.4-42.1c27.3-21 47.7-31 70.7-32.2 23-1.2 30.6-1.2 30.6-1.2S145 0 155.4 0c5.2 0 82.1 16.2 88.8 26.8 6.6 10.6 9.9 9.8 13.3 12.3 3.4 2.6 1.2.5 16.6 4 38.6 8.5 33.4 11.9 62 17C347.7 62.4 401 36.4 406 39c2.3 1.2 4.1 23.5-5 38.1-9.1 14.7 7.3 26.7 0 45-7.4 18.4 8.4 32 5 38.2-3.5 6.2-60-20.3-69.8-18.4-8.8 1.7-34 13.5-83 22.4 1.6 1 3 1.5 4.4 2.5 3.4 2.6 1.2.6 16.6 4 38.6 8.5 33.4 11.9 62 17.1 11.6 2.1 64.8-23.8 69.8-21.3 2.3 1.1 4.1 23.5-5 38.1-9.1 14.6 7.3 26.7 0 45-7.4 18.4 8.4 32 5 38.2-3.5 6.2-60-20.3-69.8-18.4-9.9 1.9-40 16.3-101.3 25.4a249.5 249.5 0 0 1-48.4 2z" />
  </defs>
  <defs>
    <use xlink:href="#a" id="e" />
    <use xlink:href="#a" id="g" />
    <use xlink:href="#a" id="j" />
    <use xlink:href="#a" id="l" />
    <use xlink:href="#a" id="n" />
    <use xlink:href="#a" id="p" />
    <use xlink:href="#a" id="s" />
    <use xlink:href="#a" id="u" />
    <use xlink:href="#a" id="w" />
    <use xlink:href="#a" id="y" />
    <linearGradient id="b" x1="50%" x2="50%" y1="0%" y2="99.1%">
      <stop offset="0%" stop-color="#E659FF" />
      <stop offset="100%" stop-color="#0037FF" />
    </linearGradient>
    <linearGradient id="c" x1="37.1%" x2="39.6%" y1="32.1%" y2="100%">
      <stop offset="0%" stop-color="#F1A5FF" />
      <stop offset="100%" stop-color="#FF686C" />
    </linearGradient>
    <linearGradient id="i" x1="39.9%" x2="43%" y1="8.3%" y2="72.3%">
      <stop offset="0%" stop-color="#F1A5FF" />
      <stop offset="100%" stop-color="#FF686C" />
    </linearGradient>
    <linearGradient id="q" x1="26.4%" x2="73.1%" y1="17.5%" y2="74.2%">
      <stop offset="0%" stop-color="#F1A5FF" />
      <stop offset="100%" stop-color="#FF686C" />
    </linearGradient>
    <linearGradient id="z" x1="26.4%" x2="73.1%" y1="17.5%" y2="74.2%">
      <stop offset="0%" stop-color="#F1A5FF" />
      <stop offset="100%" stop-color="#FF686C" />
    </linearGradient>
  </defs>
  <g fill="none" fill-rule="evenodd" transform="translate(1)">
    <path fill="url(#b)" fill-rule="nonzero" d="M186.4 296.8c4.2 9.3 3.2 18 3.2 18s-4.4 1.4-12.5 1.5c-3 .7-15.2 2.9-34.8-1.2-23-4.9-33.5-29.1-33.5-29.1l.7-.6c-1.3-.3-2-.3-2.2-.2-14.8 2.8-22.5 2.5-33.8 2.5-11.2 0-55.8-16.8-70.1-34.8 0 0 22.2-5.4 22.2-10S.2 230 .2 230s-3.9-21 23.4-42.1A167.2 167.2 0 0 1 71.1 160c-14.2-2-54.3-17.8-67.7-34.7 0 0 22.2-5.4 22.2-10s-25.4-13-25.4-13-3.9-21 23.4-42.1c27.3-21 47.7-31 70.7-32.2 23-1.2 30.6-1.2 30.6-1.2S145 0 155.4 0c5.2 0 82.1 16.2 88.8 26.8 6.6 10.6 9.9 9.8 13.3 12.3 3.4 2.6 1.2.5 16.6 4 38.6 8.5 33.4 11.9 62 17C347.7 62.4 401 36.4 406 39c2.3 1.2 4.1 23.5-5 38.1-9.1 14.7 7.3 26.7 0 45-7.4 18.4 8.4 32 5 38.2-3.5 6.2-60-20.3-69.8-18.4-8.8 1.7-34 13.5-83 22.4 1.6 1 3 1.5 4.4 2.5 3.4 2.6 1.2.6 16.6 4 38.6 8.5 33.4 11.9 62 17.1 11.6 2.1 64.8-23.8 69.8-21.3 2.3 1.1 4.1 23.5-5 38.1-9.1 14.6 7.3 26.7 0 45-7.4 18.4 8.4 32 5 38.2-3.5 6.2-60-20.3-69.8-18.4-9.9 1.9-40 16.3-101.3 25.4a249.5 249.5 0 0 1-48.4 2z" />
    <mask id="d" fill="#fff">
      <use xlink:href="#a" />
    </mask>
    <path fill="url(#c)" fill-rule="nonzero" d="M249 102.7h161V164s-104.7.7-156.5 0c-19.1-.2-82.5-4.3-82.5-4.3H60.5L0 164v-49h249v-12.3z" mask="url(#d)" />
    <mask id="f" fill="#fff">
      <use xlink:href="#e" />
    </mask>
    <path fill="#6F47FF" fill-rule="nonzero" d="M161 148.7h145v17.5l-145-5.8" mask="url(#f)" />
    <mask id="h" fill="#fff">
      <use xlink:href="#g" />
    </mask>
    <path fill="#F78EC6" fill-rule="nonzero" d="M194 231.5h216V322H0v-78.4h194v-12z" mask="url(#h)" />
    <path fill="url(#i)" fill-rule="nonzero" d="M194 231.5h216V322H0v-78.4h194v-12z" mask="url(#h)" />
    <mask id="k" fill="#fff">
      <use xlink:href="#j" />
    </mask>
    <path fill="#974DFF" fill-rule="nonzero" d="M158.2 59.4a5054 5054 0 0 1 41.5 2.4c14.3 1 36.2 4.2 53 7.6 25.7 5 46.7 12.6 80 27.3l11.5 5c2.3 1 4.8-.2 5.7-2.6.9-2.5-.2-5.3-2.5-6.3L336 87.7c-33.9-15-55.3-22.6-81.8-27.9a493.4 493.4 0 0 0-68.6-8.6l-6.6-.4-20.4-1-6.8-.4H150l-.6-.1c-3.4-.2-5.6 3.8-4 7l.3.9a92.3 92.3 0 0 1 4.1 10.6c1.6 4.6 2.8 9.1 3.6 13.3a53 53 0 0 1 .6 4.4c.5 4.1-.5 11.3-2.5 20.2a259.3 259.3 0 0 1-6 22.4l-1.3 3.7c0 .4-.2.7-.3 1l-.1.3c-.8 2.5.3 5.3 2.5 6.3 2.3.9 4.8-.4 5.6-2.9l.2-.4.3-1a334.6 334.6 0 0 0 5-16.6l2.6-10.4a81 81 0 0 0 2.7-23.6 65.3 65.3 0 0 0-.7-5.4c-1-4.7-2.3-9.6-4-14.7a139 139 0 0 0-1.8-5h2.1z" mask="url(#k)" />
    <mask id="m" fill="#fff">
      <use xlink:href="#l" />
    </mask>
    <path fill="#F1A5FF" fill-rule="nonzero" d="m158.2 114.6 1.6-6.5c2.3-10 3.3-18 2.8-23.7a66.3 66.3 0 0 0-.8-5.3 105.4 105.4 0 0 0-5.8-19.8l2.2.1 20.4 1 6.5.4 14.6 1a485 485 0 0 1 53 7.5c25.8 5.1 46.7 12.7 80 27.4 2.6 1 11.3 5 11.6 5 2.2 1 4.7-.2 5.6-2.7.9-2.5-.2-5.3-2.4-6.3l-11.5-5c-33.8-15-55.3-22.7-81.7-27.9a492.6 492.6 0 0 0-68.7-8.6l-6.5-.4-20.5-1.1-6.7-.3-2-.1h-.6c-3.3-.2-5.6 3.7-4 7l.3.8a81.5 81.5 0 0 1 4.2 10.6c1.5 4.6 2.8 9.1 3.5 13.3a53 53 0 0 1 .7 4.4c.4 4.2-.5 11.3-2.6 20.2-.6 2.9-1.4 5.9-2.2 9h9z" mask="url(#m)" />
    <mask id="o" fill="#fff">
      <use xlink:href="#n" />
    </mask>
    <path fill="#974DFF" fill-rule="nonzero" d="M122.7 61a36.3 36.3 0 0 1 1.6 2.8 87.6 87.6 0 0 1 8 20.5c.5 2.5.7 4.7.7 6.7a56.5 56.5 0 0 1-5.8 24.2 53.4 53.4 0 0 1-1 2.2c-1.1 2-.4 4.7 1.5 6 1.9 1.1 4.3.4 5.4-1.7a54.9 54.9 0 0 0 4-9.5c2.4-7.2 4-14.4 4-21.2a42 42 0 0 0-1-8.6 108.7 108.7 0 0 0-8.9-23 76.4 76.4 0 0 0-1.8-3.2 3.8 3.8 0 0 0-5.6-1.2 4.6 4.6 0 0 0-1.1 6z" mask="url(#o)" />
    <mask id="r" fill="#fff">
      <use xlink:href="#p" />
    </mask>
    <path fill="url(#q)" fill-rule="nonzero" d="m136.2 114.6.9-2.5c2.4-7.1 4-14.3 4-21.1 0-2.7-.4-5.6-1-8.6a77 77 0 0 0-5-14.8 110.4 110.4 0 0 0-4-8.1 74.7 74.7 0 0 0-1.7-3.3c-1.3-2-3.7-2.5-5.6-1.2s-2.3 4-1.1 6a26 26 0 0 1 1.6 2.8 87.6 87.6 0 0 1 8 20.5c.5 2.5.7 4.7.7 6.7a56.5 56.5 0 0 1-5.6 23.6h8.8z" mask="url(#r)" />
    <path fill="#F1A5FF" fill-rule="nonzero" d="m136.2 114.6.9-2.5c2.4-7.1 4-14.3 4-21.1 0-2.7-.4-5.6-1-8.6a77 77 0 0 0-5-14.8 110.4 110.4 0 0 0-4-8.1 74.7 74.7 0 0 0-1.7-3.3c-1.3-2-3.7-2.5-5.6-1.2s-2.3 4-1.1 6a26 26 0 0 1 1.6 2.8 87.6 87.6 0 0 1 8 20.5c.5 2.5.7 4.7.7 6.7a56.5 56.5 0 0 1-5.6 23.6h8.8z" mask="url(#r)" />
    <mask id="t" fill="#fff">
      <use xlink:href="#s" />
    </mask>
    <path fill="#373FFF" fill-rule="nonzero" d="M158.2 188.5a4881.6 4881.6 0 0 1 41.5 2.3 490 490 0 0 1 53 7.6c25.7 5.1 46.7 12.7 80 27.4 2.6 1 11.3 5 11.5 5 2.3 1 4.8-.2 5.7-2.7.9-2.4-.2-5.3-2.5-6.2l-11.4-5.1c-33.9-15-55.3-22.6-81.8-27.9a492.8 492.8 0 0 0-75.2-9l-20.4-1-6.8-.4-1.9-.1h-.6c-3.4-.2-5.6 3.7-4 7l.3.9a98.9 98.9 0 0 1 4.1 10.6 96 96 0 0 1 4.2 17.7c.5 4.1-.5 11.2-2.5 20.2a256.2 256.2 0 0 1-6 22.3l-1.3 3.7c0 .4-.2.8-.3 1l-.1.4c-.8 2.5.3 5.3 2.5 6.2 2.3 1 4.8-.3 5.6-2.8l.2-.4.3-1 1.3-3.9a333 333 0 0 0 6.3-23.1c2.2-10 3.3-18 2.7-23.7a65.3 65.3 0 0 0-.7-5.3c-1-4.7-2.3-9.7-4-14.7a137.6 137.6 0 0 0-1.8-5h2.1z" mask="url(#t)" />
    <mask id="v" fill="#fff">
      <use xlink:href="#u" />
    </mask>
    <path fill="#F1A5FF" fill-rule="nonzero" d="m158.2 243.7 1.6-6.6c2.3-10 3.3-18 2.8-23.6a66.2 66.2 0 0 0-.8-5.4c-.9-4.7-2.2-9.6-4-14.7a139 139 0 0 0-1.8-5h2.2a4930.7 4930.7 0 0 1 41.5 2.4 490 490 0 0 1 53 7.6c25.8 5.1 46.7 12.7 80 27.4 2.6 1 11.3 5 11.6 5 2.2 1 4.7-.2 5.6-2.7.9-2.4-.2-5.3-2.4-6.2l-11.5-5.1c-33.8-15-55.3-22.6-81.7-27.9a489.9 489.9 0 0 0-54-7.7 1459.7 1459.7 0 0 0-21.2-1.3l-20.5-1-6.7-.4-2-.1h-.6c-3.3-.2-5.6 3.7-4 7l.3.9a98.9 98.9 0 0 1 4.2 10.6 94.6 94.6 0 0 1 4.2 17.7c.4 4.1-.5 11.2-2.6 20.2a232 232 0 0 1-2.2 9h9v-.1z" mask="url(#v)" />
    <mask id="x" fill="#fff">
      <use xlink:href="#w" />
    </mask>
    <path fill="#373FFF" fill-rule="nonzero" d="M122.7 190a40.8 40.8 0 0 1 1.6 2.9 72 72 0 0 1 8 20.5c.5 2.4.7 4.6.7 6.6 0 5.7-1.3 11.9-3.4 18.1a74.8 74.8 0 0 1-3.2 7.8l-.2.5a4.7 4.7 0 0 0 1.5 6c1.9 1.1 4.3.4 5.4-1.7a52 52 0 0 0 4-9.5c2.5-7.2 4-14.4 4-21.2 0-2.7-.4-5.6-1-8.6a109.4 109.4 0 0 0-8.9-23 78.1 78.1 0 0 0-1.8-3.2 3.8 3.8 0 0 0-5.6-1.2 4.6 4.6 0 0 0-1 6h-.1z" mask="url(#x)" />
    <mask id="A" fill="#fff">
      <use xlink:href="#y" />
    </mask>
    <path fill="url(#z)" fill-rule="nonzero" d="m136.2 243.7.9-2.5c2.4-7.1 4-14.3 4-21.2 0-2.7-.4-5.5-1-8.5a77 77 0 0 0-5-14.9 111 111 0 0 0-4-8 75.2 75.2 0 0 0-1.7-3.3c-1.3-2-3.7-2.6-5.6-1.3s-2.3 4-1.1 6a28.3 28.3 0 0 1 1.6 2.9 72 72 0 0 1 8 20.5c.5 2.4.7 4.6.7 6.6a56.5 56.5 0 0 1-5.6 23.6h8.8z" mask="url(#A)" />
    <path fill="#F1A5FF" fill-rule="nonzero" d="m136.2 243.7.9-2.5c2.4-7.1 4-14.3 4-21.2 0-2.7-.4-5.5-1-8.5a77 77 0 0 0-5-14.9 111 111 0 0 0-4-8 75.2 75.2 0 0 0-1.7-3.3c-1.3-2-3.7-2.6-5.6-1.3s-2.3 4-1.1 6a28.3 28.3 0 0 1 1.6 2.9 72 72 0 0 1 8 20.5c.5 2.4.7 4.6.7 6.6a56.5 56.5 0 0 1-5.6 23.6h8.8z" mask="url(#A)" />
    <ellipse cx="69.2" cy="210.1" fill="#000" fill-rule="nonzero" mask="url(#A)" rx="19.1" ry="19.6" transform="matrix(-1 0 0 1 138.4 0)" />
    <path fill="#FFF" fill-rule="nonzero" d="M88.2 210.3v-.2c0-10.8-8.5-19.6-19-19.6s-19 8.8-19 19.6c0 10.9 8.5 19.6 19 19.6 9.4 0 17.2-7 18.8-16.3-1.3 7-7.3 12.3-14.5 12.3-8 0-14.6-6.8-14.6-15.2s6.5-15 14.6-15a15 15 0 0 1 14.7 14.8z" mask="url(#A)" transform="matrix(-1 0 0 1 138.4 0)" />
    <circle cx="59.6" cy="215.8" r="4.9" fill="#FFF" fill-rule="nonzero" mask="url(#A)" transform="matrix(-1 0 0 1 119.1 0)" />
    <ellipse cx="69.2" cy="80.8" fill="#000" fill-rule="nonzero" mask="url(#A)" rx="19.1" ry="19.6" transform="matrix(-1 0 0 1 138.4 0)" />
    <path fill="#FFF" fill-rule="nonzero" d="M88.2 81v-.2c0-10.8-8.5-19.6-19-19.6s-19 8.8-19 19.6 8.5 19.6 19 19.6c9.4 0 17.2-7 18.8-16.3-1.3 7-7.3 12.2-14.5 12.2-8 0-14.6-6.7-14.6-15S65.4 66 73.5 66a15 15 0 0 1 14.7 15z" mask="url(#A)" transform="matrix(-1 0 0 1 138.4 0)" />
    <circle cx="59.6" cy="86.5" r="4.9" fill="#FFF" fill-rule="nonzero" mask="url(#A)" transform="matrix(-1 0 0 1 119.1 0)" />
  </g>
</svg>