<svg xmlns="http://www.w3.org/2000/svg" viewBox="0 -40.5 256 256">
  <path fill="#4679A4" fill-rule="evenodd" d="m225 79.5.2-4.5c0-41.4-34.1-75-76.2-75a76.2 76.2 0 0 0-68.7 42.8A35.3 35.3 0 0 0 23.7 70c0 3.6.6 7 1.6 10.3a50.6 50.6 0 0 0 25.5 94.4h152l2.8.2a50 50 0 0 0 50.4-49.7 49.7 49.7 0 0 0-31-45.8Zm-156.3 57a29.8 29.8 0 0 1-9.5-16.8 37 37 0 0 1-.7-7 30 30 0 0 1 10.3-23.3A37.8 37.8 0 0 1 95 80.2c10.9 0 21.1 4 30.2 12.2a65 65 0 0 1 6.6 6.9l11.6 13.7c2 2.7 4.2 5.1 6.4 7.1 6 5.4 12.5 8 18 8 4.7 0 8.5-1.3 11.7-4.2 2.7-2.6 4.3-5.7 4.6-9.3V113a14.3 14.3 0 0 0-4.7-10.7c-3-3-7-4.4-11.7-4.4-5.8 0-11.6 2-17.9 8l-10.3-12.1-1.3-1.4c9-8.9 18-12.2 30.2-12.2 10.7 0 19.4 3 26 9.2h.2c6.8 6.2 10.2 14 10.2 23.7a29.7 29.7 0 0 1-10.2 23.5c-5 4.6-11.1 7.5-18.3 8.6a44.5 44.5 0 0 1-37.9-11.4 60 60 0 0 1-6.8-7.2L119.9 113c-2-2.8-4-5.1-6.3-7.1-6-5.4-12.5-8-18.2-8a19 19 0 0 0-4.9.6c-2.5.6-4.7 1.9-6.7 3.7a14.4 14.4 0 0 0-4.7 10.8c0 4 1.5 7.6 4.5 10.6l.2.2c3.2 3 7.2 4.4 11.8 4.4 6 0 11.7-2 18-8.2l10.2 12 1.2 1.4a39.9 39.9 0 0 1-30 12.3 38 38 0 0 1-26.3-9.1Z" />
</svg>