<svg xmlns="http://www.w3.org/2000/svg" viewBox="0 0 128 128"><path fill="#38b2ac" d="M64 25.6c-17 0-27.7 8.5-32 25.6 6.4-8.5 13.9-11.7 22.4-9.6 4.9 1.2 8.4 4.7 12.2 8.7C73 56.6 80.1 64 96 64c17 0 27.7-8.5 32-25.6-6.4 8.5-13.9 11.7-22.4 9.6-4.9-1.2-8.3-4.7-12.2-8.7C87.1 33 79.9 25.6 64 25.6zM32 64C15 64 4.3 72.5 0 89.6c6.4-8.5 13.9-11.7 22.4-9.6 4.9 1.2 8.4 4.7 12.2 8.7C41 95 48.1 102.4 64 102.4c17 0 27.7-8.5 32-25.6-6.4 8.5-13.9 11.7-22.4 9.6-4.9-1.2-8.3-4.7-12.2-8.7C55.1 71.4 47.9 64 32 64zm0 0"/></svg>