<svg xmlns="http://www.w3.org/2000/svg" viewBox="0 0 128 128">
  <path fill="#2489ca" d="M3.7 45s-3-2.1.6-5l8.4-7.7s2.5-2.5 5-.3L96 91.3v28.5s0 4.5-5.8 4zm0 0" />
  <path fill="#1070b3" d="M23.8 63.4 3.7 81.7s-2.1 1.6 0 4.3l9.3 8.6s2.2 2.4 5.5-.4L40 78zm0 0" />
  <path fill="#0877b9" d="m59.2 63.5 37-28.3L95.8 7S94.3.8 89.1 4L39.9 49zm0 0" />
  <path fill="#3c99d4" d="M90.1 123.8c2.2 2.2 4.8 1.5 4.8 1.5l28.8-14.2c3.7-2.6 3.2-5.7 3.2-5.7v-85c0-3.7-3.9-5-3.9-5l-25-12C92.7 0 89 4 89 4S93.7.7 96 7v112.3c0 .7-.2 1.5-.5 2.2-.7 1.3-2 2.6-5.5 2zm0 0" />
</svg>